<svg width="212" height="42" viewBox="0 0 212 42" fill="none" xmlns="http://www.w3.org/2000/svg">
<path d="M19.2783 41.0547C12.9678 41.0547 8.23926 40.0615 5.09277 38.0752C1.94629 36.0713 0.373047 32.9951 0.373047 28.8467C0.373047 26.667 0.891602 24.874 1.92871 23.4678C2.9834 22.0439 4.38086 20.9541 6.12109 20.1982C5.41797 19.917 4.76758 19.5215 4.16992 19.0117C3.57227 18.502 3.05371 17.9307 2.61426 17.2979C2.19238 16.6475 1.8584 15.9531 1.6123 15.2148C1.36621 14.459 1.24316 13.6943 1.24316 12.9209C1.24316 11.2334 1.57715 9.66895 2.24512 8.22754C2.93066 6.78613 4.00293 5.54687 5.46191 4.50977C6.9209 3.45508 8.78418 2.62891 11.0518 2.03125C13.3369 1.43359 16.0791 1.13477 19.2783 1.13477C22.4775 1.13477 25.2109 1.43359 27.4785 2.03125C29.7637 2.62891 31.6357 3.45508 33.0947 4.50977C34.5537 5.54687 35.6172 6.78613 36.2852 8.22754C36.9707 9.66895 37.3135 11.2334 37.3135 12.9209C37.3135 13.6943 37.1904 14.459 36.9443 15.2148C36.6982 15.9531 36.3555 16.6475 35.916 17.2979C35.4766 17.9307 34.958 18.502 34.3604 19.0117C33.7803 19.5215 33.1387 19.917 32.4355 20.1982C34.1758 20.9541 35.5645 22.0439 36.6016 23.4678C37.6562 24.874 38.1836 26.667 38.1836 28.8467C38.1836 32.9951 36.6104 36.0713 33.4639 38.0752C30.3174 40.0615 25.5889 41.0547 19.2783 41.0547ZM19.2783 33.4346C21.0713 33.4346 22.6094 33.3379 23.8926 33.1445C25.1758 32.9512 26.2217 32.6611 27.0303 32.2744C27.8564 31.8877 28.4541 31.4131 28.8232 30.8506C29.21 30.2705 29.4033 29.6025 29.4033 28.8467C29.4033 28.0908 29.21 27.4316 28.8232 26.8691C28.4541 26.2891 27.8564 25.8057 27.0303 25.4189C26.2217 25.0322 25.1758 24.7422 23.8926 24.5488C22.6094 24.3555 21.0713 24.2588 19.2783 24.2588C17.4854 24.2588 15.9473 24.3555 14.6641 24.5488C13.3809 24.7422 12.3262 25.0322 11.5 25.4189C10.6914 25.8057 10.0938 26.2891 9.70703 26.8691C9.33789 27.4316 9.15332 28.0908 9.15332 28.8467C9.15332 29.6025 9.33789 30.2705 9.70703 30.8506C10.0938 31.4131 10.6914 31.8877 11.5 32.2744C12.3262 32.6611 13.3809 32.9512 14.6641 33.1445C15.9473 33.3379 17.4854 33.4346 19.2783 33.4346ZM28.5332 12.9209C28.5332 12.3232 28.3574 11.7695 28.0059 11.2598C27.6719 10.75 27.127 10.3105 26.3711 9.94141C25.6328 9.57227 24.6748 9.28223 23.4971 9.07129C22.3369 8.86035 20.9307 8.75488 19.2783 8.75488C17.626 8.75488 16.2109 8.86035 15.0332 9.07129C13.873 9.28223 12.915 9.57227 12.1592 9.94141C11.4209 10.3105 10.876 10.75 10.5244 11.2598C10.1904 11.7695 10.0234 12.3232 10.0234 12.9209C10.0234 13.5361 10.1904 14.0986 10.5244 14.6084C10.876 15.1182 11.4209 15.5576 12.1592 15.9268C12.915 16.2959 13.873 16.5859 15.0332 16.7969C16.2109 16.9902 17.626 17.0869 19.2783 17.0869C20.9307 17.0869 22.3369 16.9902 23.4971 16.7969C24.6748 16.5859 25.6328 16.2959 26.3711 15.9268C27.127 15.5576 27.6719 15.1182 28.0059 14.6084C28.3574 14.0986 28.5332 13.5361 28.5332 12.9209ZM41.875 12.8418H48.8359V4.95801H57.4844V12.8418H68.2949V19.4863H57.4844V28.1875C57.4844 29.3477 57.5635 30.3145 57.7217 31.0879C57.8799 31.8438 58.1348 32.4502 58.4863 32.9072C58.8555 33.3643 59.3213 33.6895 59.8838 33.8828C60.4463 34.0586 61.1318 34.1465 61.9404 34.1465C62.6787 34.1465 63.3555 34.1025 63.9707 34.0146C64.5859 33.9268 65.1133 33.8213 65.5527 33.6982C66.0625 33.5576 66.5283 33.3994 66.9502 33.2236L69.4023 39.0771C68.875 39.4111 68.207 39.7012 67.3984 39.9473C66.7129 40.1582 65.834 40.3516 64.7617 40.5273C63.6895 40.7031 62.3975 40.791 60.8857 40.791C58.4951 40.791 56.5176 40.5098 54.9531 39.9473C53.4062 39.3848 52.1758 38.5674 51.2617 37.4951C50.3652 36.4053 49.7324 35.0869 49.3633 33.54C49.0117 31.9756 48.8359 30.1914 48.8359 28.1875V19.4863H41.875V12.8418ZM73.8584 12.8418H82.4805V40H73.8584V12.8418ZM73.6211 4.82617C73.6211 4.19336 73.7354 3.60449 73.9639 3.05957C74.21 2.51465 74.5352 2.04004 74.9395 1.63574C75.3613 1.21387 75.8447 0.888672 76.3896 0.660156C76.9346 0.414063 77.5234 0.291016 78.1562 0.291016C78.7891 0.291016 79.3779 0.414063 79.9229 0.660156C80.4678 0.888672 80.9424 1.21387 81.3467 1.63574C81.7686 2.04004 82.0938 2.51465 82.3223 3.05957C82.5684 3.60449 82.6914 4.19336 82.6914 4.82617C82.6914 5.45898 82.5684 6.04785 82.3223 6.59277C82.0938 7.1377 81.7686 7.62109 81.3467 8.04297C80.9424 8.44727 80.4678 8.77246 79.9229 9.01855C79.3779 9.24707 78.7891 9.36133 78.1562 9.36133C77.5234 9.36133 76.9346 9.24707 76.3896 9.01855C75.8447 8.77246 75.3613 8.44727 74.9395 8.04297C74.5352 7.62109 74.21 7.1377 73.9639 6.59277C73.7354 6.04785 73.6211 5.45898 73.6211 4.82617ZM88.4922 12.8418H97.1406V16.6914C97.457 15.9707 97.8613 15.3203 98.3535 14.7402C98.8633 14.1602 99.4521 13.6768 100.12 13.29C100.788 12.8857 101.518 12.5781 102.309 12.3672C103.1 12.1562 103.943 12.0508 104.84 12.0508C106.299 12.0508 107.591 12.1826 108.716 12.4463C109.841 12.71 110.825 13.0967 111.669 13.6064C112.53 14.0986 113.269 14.6963 113.884 15.3994C114.517 16.1025 115.07 16.8848 115.545 17.7461C115.879 16.9375 116.318 16.1816 116.863 15.4785C117.426 14.7754 118.085 14.1777 118.841 13.6855C119.614 13.1758 120.484 12.7803 121.451 12.499C122.436 12.2002 123.525 12.0508 124.721 12.0508C126.9 12.0508 128.764 12.3672 130.311 13C131.857 13.6328 133.114 14.5381 134.081 15.7158C135.065 16.8936 135.777 18.3262 136.217 20.0137C136.674 21.6836 136.902 23.5645 136.902 25.6562V40H128.254V25.6562C128.254 24.6367 128.175 23.6963 128.017 22.835C127.858 21.9736 127.568 21.2441 127.146 20.6465C126.725 20.0312 126.145 19.5566 125.406 19.2227C124.686 18.8711 123.763 18.6953 122.638 18.6953C121.495 18.6953 120.563 18.8711 119.843 19.2227C119.122 19.5566 118.551 20.0312 118.129 20.6465C117.707 21.2441 117.417 21.9736 117.259 22.835C117.101 23.6963 117.021 24.6367 117.021 25.6562V40H108.373V25.6562C108.373 24.6367 108.294 23.6963 108.136 22.835C107.978 21.9736 107.688 21.2441 107.266 20.6465C106.844 20.0312 106.264 19.5566 105.525 19.2227C104.805 18.8711 103.882 18.6953 102.757 18.6953C101.614 18.6953 100.683 18.8711 99.9619 19.2227C99.2412 19.5566 98.6699 20.0312 98.248 20.6465C97.8262 21.2441 97.5361 21.9736 97.3779 22.835C97.2197 23.6963 97.1406 24.6367 97.1406 25.6562V40H88.4922V12.8418ZM174.581 37.3369C173.632 37.9873 172.445 38.5674 171.021 39.0771C169.809 39.5166 168.279 39.9121 166.434 40.2637C164.588 40.6152 162.391 40.791 159.842 40.791C157.539 40.791 155.491 40.6064 153.698 40.2373C151.905 39.8682 150.332 39.3584 148.979 38.708C147.643 38.0576 146.509 37.2842 145.577 36.3877C144.646 35.4912 143.89 34.5156 143.31 33.4609C142.729 32.3887 142.308 31.2637 142.044 30.0859C141.78 28.8906 141.648 27.6689 141.648 26.4209C141.648 24.5049 141.991 22.6768 142.677 20.9365C143.38 19.1963 144.452 17.667 145.894 16.3486C147.353 15.0303 149.189 13.9844 151.404 13.2109C153.619 12.4375 156.256 12.0508 159.314 12.0508C162.285 12.0508 164.869 12.4551 167.066 13.2637C169.281 14.0547 171.101 15.2061 172.524 16.7178C173.966 18.2119 175.012 20.0488 175.662 22.2285C176.312 24.4082 176.576 26.8691 176.453 29.6113H150.64C150.64 29.998 150.763 30.4639 151.009 31.0088C151.255 31.5537 151.712 32.0811 152.38 32.5908C153.065 33.083 154.006 33.5137 155.201 33.8828C156.396 34.2344 157.943 34.4102 159.842 34.4102C161.406 34.4102 162.839 34.2959 164.14 34.0674C165.458 33.8389 166.609 33.584 167.594 33.3027C168.719 32.9863 169.756 32.6084 170.705 32.1689L174.581 37.3369ZM167.963 24.0215C167.963 23.7578 167.901 23.4414 167.778 23.0723C167.673 22.6855 167.488 22.29 167.225 21.8857C166.961 21.4639 166.609 21.0508 166.17 20.6465C165.748 20.2246 165.212 19.8555 164.562 19.5391C163.929 19.2051 163.173 18.9414 162.294 18.748C161.433 18.5371 160.439 18.4316 159.314 18.4316C158.172 18.4316 157.17 18.5371 156.309 18.748C155.447 18.9414 154.691 19.2051 154.041 19.5391C153.408 19.8555 152.872 20.2246 152.433 20.6465C152.011 21.0508 151.668 21.4639 151.404 21.8857C151.141 22.29 150.947 22.6855 150.824 23.0723C150.719 23.4414 150.666 23.7578 150.666 24.0215H167.963ZM206.248 20.4092C205.369 20.0928 204.385 19.8115 203.295 19.5654C202.346 19.3545 201.212 19.1611 199.894 18.9854C198.575 18.792 197.09 18.6953 195.438 18.6953C193.346 18.6953 191.843 18.8271 190.929 19.0908C190.015 19.3369 189.558 19.7852 189.558 20.4355C189.558 20.7168 189.654 20.9541 189.848 21.1475C190.041 21.3408 190.393 21.5254 190.902 21.7012C191.43 21.877 192.133 22.0615 193.012 22.2549C193.908 22.4482 195.042 22.6768 196.413 22.9404C198.962 23.4502 201.177 23.96 203.058 24.4697C204.938 24.9619 206.494 25.5596 207.725 26.2627C208.973 26.9482 209.904 27.7744 210.52 28.7412C211.135 29.6904 211.442 30.877 211.442 32.3008C211.442 33.8652 211.082 35.1924 210.361 36.2822C209.641 37.3545 208.595 38.2246 207.224 38.8926C205.87 39.5605 204.2 40.0439 202.214 40.3428C200.228 40.6416 197.969 40.791 195.438 40.791C192.607 40.791 190.19 40.624 188.187 40.29C186.2 39.9736 184.574 39.6133 183.309 39.209C181.832 38.752 180.619 38.2158 179.67 37.6006L183.572 31.958C184.416 32.3799 185.427 32.749 186.604 33.0654C187.606 33.3467 188.837 33.6016 190.296 33.8301C191.772 34.041 193.486 34.1465 195.438 34.1465C197.934 34.1465 199.779 33.9971 200.975 33.6982C202.188 33.3994 202.794 32.9336 202.794 32.3008C202.794 32.0195 202.618 31.7646 202.267 31.5361C201.933 31.3076 201.432 31.0967 200.764 30.9033C200.096 30.6924 199.278 30.4814 198.312 30.2705C197.345 30.0596 196.237 29.8311 194.989 29.585C192.317 29.04 190.076 28.4951 188.266 27.9502C186.473 27.3877 185.031 26.7637 183.941 26.0781C182.852 25.3926 182.069 24.6016 181.595 23.7051C181.138 22.791 180.909 21.7012 180.909 20.4355C180.909 17.6758 182.157 15.5928 184.653 14.1865C187.167 12.7627 190.762 12.0508 195.438 12.0508C197.916 12.0508 200.069 12.1914 201.897 12.4727C203.726 12.7539 205.255 13.0703 206.485 13.4219C207.927 13.8262 209.148 14.2744 210.15 14.7666L206.248 20.4092Z" fill="#202020"/>
</svg>
