<svg width="24" height="24" viewBox="0 0 24 24" fill="none" xmlns="http://www.w3.org/2000/svg">
<path d="M19.5788 6.75H4.42132C4.23674 6.75 4.05865 6.81806 3.92112 6.94115C3.7836 7.06425 3.69629 7.23373 3.6759 7.41718L2.34257 19.4172C2.33092 19.522 2.34152 19.6281 2.37366 19.7286C2.40581 19.829 2.45879 19.9216 2.52914 20.0002C2.59948 20.0788 2.68562 20.1417 2.78191 20.1847C2.87821 20.2278 2.9825 20.25 3.08798 20.25H20.9121C21.0176 20.25 21.1219 20.2278 21.2182 20.1847C21.3145 20.1417 21.4006 20.0788 21.4709 20.0002C21.5413 19.9216 21.5943 19.829 21.6264 19.7286C21.6586 19.6281 21.6691 19.522 21.6575 19.4172L20.3242 7.41718C20.3038 7.23373 20.2165 7.06425 20.0789 6.94115C19.9414 6.81806 19.7633 6.75 19.5788 6.75Z" stroke="white" stroke-width="1.5" stroke-linecap="round" stroke-linejoin="round"/>
<path d="M8.25 6.75C8.25 5.75544 8.64509 4.80161 9.34835 4.09835C10.0516 3.39509 11.0054 3 12 3C12.9946 3 13.9484 3.39509 14.6517 4.09835C15.3549 4.80161 15.75 5.75544 15.75 6.75" stroke="white" stroke-width="1.5" stroke-linecap="round" stroke-linejoin="round"/>
</svg>
