<svg width="22" height="22" viewBox="0 0 22 22" fill="none" xmlns="http://www.w3.org/2000/svg">
<path d="M17.9471 6.1875H4.05279C3.8836 6.1875 3.72035 6.24989 3.59428 6.36272C3.46821 6.47556 3.38818 6.63092 3.36949 6.79908L2.14727 17.7991C2.13659 17.8952 2.14631 17.9924 2.17578 18.0845C2.20524 18.1766 2.25381 18.2615 2.31829 18.3335C2.38278 18.4056 2.46173 18.4632 2.55 18.5026C2.63827 18.5421 2.73388 18.5625 2.83057 18.5625H19.1693C19.266 18.5625 19.3616 18.5421 19.4499 18.5026C19.5382 18.4632 19.6171 18.4056 19.6816 18.3335C19.7461 18.2615 19.7946 18.1766 19.8241 18.0845C19.8536 17.9924 19.8633 17.8952 19.8526 17.7991L18.6304 6.79908C18.6117 6.63092 18.5317 6.47556 18.4056 6.36272C18.2795 6.24989 18.1163 6.1875 17.9471 6.1875Z" stroke="#858586" stroke-width="1.3004" stroke-linecap="round" stroke-linejoin="round"/>
<path d="M7.5625 6.1875C7.5625 5.27582 7.92466 4.40148 8.56932 3.75682C9.21398 3.11216 10.0883 2.75 11 2.75C11.9117 2.75 12.786 3.11216 13.4307 3.75682C14.0753 4.40148 14.4375 5.27582 14.4375 6.1875" stroke="#858586" stroke-width="1.3004" stroke-linecap="round" stroke-linejoin="round"/>
<path d="M17.5 9.47287C19.6942 9.47287 21.4729 7.69416 21.4729 5.5C21.4729 3.30584 19.6942 1.52713 17.5 1.52713C15.3058 1.52713 13.5271 3.30584 13.5271 5.5C13.5271 7.69416 15.3058 9.47287 17.5 9.47287Z" fill="#FF5252" stroke="white" stroke-width="0.945749"/>
</svg>
