<svg width="36" height="36" viewBox="0 0 36 36" fill="none" xmlns="http://www.w3.org/2000/svg">
<path fill-rule="evenodd" clip-rule="evenodd" d="M18 35.9445C27.9105 35.9445 35.9445 27.9105 35.9445 18.0001C35.9445 8.08966 27.9105 0.0556641 18 0.0556641C8.0896 0.0556641 0.055603 8.08966 0.055603 18.0001C0.055603 27.9105 8.0896 35.9445 18 35.9445ZM10.775 8H24.7251C26.3001 8 27.5001 9.2 27.5001 10.775V24.7251C27.5001 26.3001 26.3001 27.5001 24.7251 27.5001H10.775C9.2 27.5001 8 26.3001 8 24.7251V10.775C8 9.2 9.2 8 10.775 8ZM23.6 17.975C23.6 21.05 20.975 23.6 17.75 23.6C14.525 23.6 11.9 21.05 11.975 17.9C11.975 17.375 12.05 16.85 12.2 16.325H10.475V24.35C10.475 24.8001 10.85 25.1001 11.225 25.1001H24.275C24.725 25.1001 25.0251 24.7251 25.0251 24.35V16.4H23.375C23.525 16.85 23.6 17.45 23.6 17.975ZM14 17.675C14 19.7 15.65 21.35 17.75 21.35C19.85 21.35 21.5 19.775 21.5 17.675C21.5 15.65 19.85 14 17.75 14C15.65 14 14 15.65 14 17.675ZM24.125 14.15C24.5751 14.15 24.9501 13.775 24.9501 13.325V11.3C24.9501 10.85 24.5751 10.475 24.125 10.475H22.025C21.575 10.475 21.2 10.85 21.2 11.3V13.325C21.2 13.775 21.575 14.15 22.025 14.15H24.125Z" fill="#F1F1F1"/>
</svg>
