<svg width="18" height="18" viewBox="0 0 18 18" fill="none" xmlns="http://www.w3.org/2000/svg">
<path d="M1.6167 1.125H16.3834C16.5166 1.125 16.647 1.16369 16.7586 1.23636C16.8702 1.30904 16.9583 1.41257 17.0122 1.53437C17.0661 1.65617 17.0834 1.79101 17.0621 1.92248C17.0408 2.05395 16.9817 2.17641 16.8922 2.27496L11.2414 8.49083C11.1263 8.61738 11.0626 8.78226 11.0626 8.95329V13.8196C11.0626 13.9327 11.0346 14.0442 10.9812 14.144C10.9278 14.2438 10.8506 14.3288 10.7564 14.3916L8.00643 16.2249C7.90289 16.294 7.78256 16.3336 7.65827 16.3396C7.53397 16.3456 7.41038 16.3178 7.30067 16.259C7.19096 16.2003 7.09924 16.1129 7.03529 16.0062C6.97134 15.8994 6.93757 15.7773 6.93757 15.6529V8.95329C6.93757 8.78227 6.87382 8.61738 6.75878 8.49083L1.10799 2.27496C1.0184 2.17641 0.95936 2.05395 0.938053 1.92248C0.916747 1.79101 0.934089 1.65617 0.987971 1.53437C1.04185 1.41257 1.12996 1.30904 1.24157 1.23636C1.35319 1.16369 1.48351 1.125 1.6167 1.125V1.125Z" stroke="black" stroke-width="1.375" stroke-linecap="round" stroke-linejoin="round"/>
</svg>
