<svg width="22" height="18" viewBox="0 0 22 18" fill="none" xmlns="http://www.w3.org/2000/svg">
<path d="M11.0005 17.25C11.0005 17.25 1.62555 12 1.62555 5.62501C1.62574 4.49826 2.01616 3.40635 2.73044 2.53493C3.44471 1.66351 4.43875 1.06636 5.54354 0.845015C6.64833 0.623669 7.79569 0.791788 8.79054 1.32079C9.78539 1.84979 10.5663 2.70702 11.0006 3.74673L11.0005 3.74673C11.4348 2.70702 12.2157 1.84979 13.2106 1.32079C14.2054 0.79179 15.3528 0.62367 16.4576 0.845015C17.5624 1.06636 18.5564 1.66351 19.2707 2.53493C19.9849 3.40635 20.3754 4.49826 20.3755 5.62501C20.3755 12 11.0005 17.25 11.0005 17.25Z" stroke="#202020" stroke-width="1.5" stroke-linecap="round" stroke-linejoin="round"/>
</svg>
