<svg width="20" height="18" viewBox="0 0 20 18" fill="none" xmlns="http://www.w3.org/2000/svg">
<path d="M10.0005 16.5625C10.0005 16.5625 1.40674 11.75 1.40674 5.90626C1.40691 4.8734 1.7648 3.87249 2.41955 3.07368C3.0743 2.27488 3.9855 1.7275 4.99823 1.5246C6.01096 1.3217 7.0627 1.47581 7.97464 1.96072C8.88659 2.44564 9.60244 3.23143 10.0005 4.1845L10.0005 4.18451C10.3985 3.23144 11.1144 2.44564 12.0263 1.96073C12.9383 1.47581 13.99 1.3217 15.0027 1.5246C16.0155 1.7275 16.9267 2.27488 17.5814 3.07368C18.2362 3.87249 18.5941 4.8734 18.5942 5.90626C18.5942 11.75 10.0005 16.5625 10.0005 16.5625Z" stroke="#858586" stroke-width="1.375" stroke-linecap="round" stroke-linejoin="round"/>
</svg>
