<svg width="89" height="79" viewBox="0 0 89 79" fill="none" xmlns="http://www.w3.org/2000/svg">
<g clip-path="url(#clip0)">
<circle cx="47.8744" cy="40.2821" r="31.0024" fill="white" stroke="#202020" stroke-width="0.843602"/>
<path d="M28.1372 40.7912C28.3019 40.6265 28.3019 40.3594 28.1372 40.1947L25.4528 37.5103C25.2881 37.3456 25.021 37.3456 24.8563 37.5103C24.6916 37.6751 24.6916 37.9421 24.8563 38.1069L27.2424 40.4929L24.8563 42.879C24.6916 43.0437 24.6916 43.3108 24.8563 43.4755C25.021 43.6402 25.2881 43.6402 25.4528 43.4755L28.1372 40.7912ZM-2.53076 40.9147H27.8389V40.0711H-2.53076V40.9147Z" fill="#202020"/>
<path d="M38.6367 36.6209H39.9326L36.4165 39.412L39.9779 43.1184H38.8044L35.755 39.9421L34.527 40.9118V43.1184H33.6254V36.6209H34.527V39.8832L38.6367 36.6209ZM41.1469 38.8909C41.3312 38.8063 41.5426 38.7308 41.7813 38.6644C41.9867 38.607 42.2329 38.5541 42.5198 38.5058C42.8098 38.4575 43.1376 38.4333 43.5031 38.4333C43.8746 38.4333 44.1903 38.4605 44.4501 38.5148C44.7099 38.5662 44.9273 38.6372 45.1025 38.7278C45.2777 38.8184 45.4152 38.9242 45.5149 39.045C45.6176 39.1658 45.6946 39.2957 45.746 39.4347C45.7973 39.5736 45.829 39.7186 45.8411 39.8696C45.8562 40.0176 45.8638 40.1642 45.8638 40.3091V43.1184H45.0074V42.262C44.9319 42.3829 44.8382 42.5007 44.7265 42.6155C44.6177 42.7272 44.4833 42.8284 44.3232 42.919C44.1631 43.0066 43.9728 43.0761 43.7523 43.1275C43.5318 43.1818 43.2735 43.209 42.9775 43.209C42.2586 43.209 41.7073 43.0852 41.3236 42.8375C40.94 42.5898 40.7482 42.2092 40.7482 41.6957C40.7482 41.4389 40.8041 41.2154 40.9158 41.0251C41.0306 40.8348 41.1862 40.6747 41.3825 40.5448C41.5819 40.4149 41.816 40.3122 42.0849 40.2367C42.3537 40.1611 42.6437 40.1098 42.9548 40.0826C43.269 40.0524 43.5967 40.0433 43.9381 40.0554C44.2794 40.0675 44.6223 40.0962 44.9666 40.1415C44.9636 39.9814 44.9485 39.8394 44.9213 39.7156C44.8941 39.5917 44.8307 39.4875 44.731 39.4029C44.6343 39.3153 44.4893 39.2489 44.296 39.2036C44.1027 39.1583 43.8384 39.1356 43.5031 39.1356C43.2373 39.1356 42.9835 39.1567 42.7419 39.199C42.5032 39.2383 42.2903 39.2821 42.103 39.3304C41.8855 39.3848 41.6816 39.4482 41.4913 39.5207L41.1469 38.8909ZM41.6363 41.6957C41.6363 41.8135 41.6589 41.9222 41.7042 42.0219C41.7526 42.1216 41.8311 42.2077 41.9399 42.2802C42.0486 42.3496 42.1906 42.4055 42.3658 42.4478C42.544 42.4871 42.763 42.5067 43.0228 42.5067C43.3853 42.5067 43.6919 42.4614 43.9426 42.3708C44.1933 42.2802 44.3972 42.1654 44.5543 42.0264C44.7144 41.8875 44.8292 41.7349 44.8987 41.5688C44.9711 41.4026 45.0074 41.2441 45.0074 41.093V40.7305C44.7567 40.7034 44.4984 40.6852 44.2326 40.6762C43.9698 40.6641 43.713 40.6656 43.4623 40.6807C43.2116 40.6928 42.976 40.7215 42.7555 40.7668C42.5349 40.8091 42.3416 40.871 42.1755 40.9526C42.0093 41.0311 41.8779 41.1323 41.7813 41.2561C41.6846 41.377 41.6363 41.5235 41.6363 41.6957ZM46.8651 38.5239H51.9354V39.2262H49.8284V43.1184H48.9721V39.2262H46.8651V38.5239ZM53.1543 38.8909C53.3385 38.8063 53.55 38.7308 53.7886 38.6644C53.994 38.607 54.2402 38.5541 54.5272 38.5058C54.8172 38.4575 55.1449 38.4333 55.5104 38.4333C55.882 38.4333 56.1976 38.4605 56.4574 38.5148C56.7172 38.5662 56.9347 38.6372 57.1099 38.7278C57.2851 38.8184 57.4225 38.9242 57.5222 39.045C57.6249 39.1658 57.7019 39.2957 57.7533 39.4347C57.8046 39.5736 57.8364 39.7186 57.8484 39.8696C57.8635 40.0176 57.8711 40.1642 57.8711 40.3091V43.1184H57.0147V42.262C56.9392 42.3829 56.8456 42.5007 56.7338 42.6155C56.625 42.7272 56.4906 42.8284 56.3305 42.919C56.1704 43.0066 55.9801 43.0761 55.7596 43.1275C55.5391 43.1818 55.2808 43.209 54.9848 43.209C54.2659 43.209 53.7146 43.0852 53.331 42.8375C52.9473 42.5898 52.7555 42.2092 52.7555 41.6957C52.7555 41.4389 52.8114 41.2154 52.9232 41.0251C53.038 40.8348 53.1935 40.6747 53.3899 40.5448C53.5892 40.4149 53.8233 40.3122 54.0922 40.2367C54.361 40.1611 54.651 40.1098 54.9621 40.0826C55.2763 40.0524 55.604 40.0433 55.9454 40.0554C56.2867 40.0675 56.6296 40.0962 56.9739 40.1415C56.9709 39.9814 56.9558 39.8394 56.9286 39.7156C56.9014 39.5917 56.838 39.4875 56.7383 39.4029C56.6417 39.3153 56.4967 39.2489 56.3033 39.2036C56.11 39.1583 55.8457 39.1356 55.5104 39.1356C55.2446 39.1356 54.9908 39.1567 54.7492 39.199C54.5105 39.2383 54.2976 39.2821 54.1103 39.3304C53.8928 39.3848 53.6889 39.4482 53.4986 39.5207L53.1543 38.8909ZM53.6436 41.6957C53.6436 41.8135 53.6663 41.9222 53.7116 42.0219C53.7599 42.1216 53.8384 42.2077 53.9472 42.2802C54.0559 42.3496 54.1979 42.4055 54.3731 42.4478C54.5513 42.4871 54.7703 42.5067 55.0301 42.5067C55.3926 42.5067 55.6992 42.4614 55.9499 42.3708C56.2006 42.2802 56.4045 42.1654 56.5616 42.0264C56.7217 41.8875 56.8365 41.7349 56.906 41.5688C56.9785 41.4026 57.0147 41.2441 57.0147 41.093V40.7305C56.764 40.7034 56.5057 40.6852 56.2399 40.6762C55.9771 40.6641 55.7203 40.6656 55.4696 40.6807C55.2189 40.6928 54.9833 40.7215 54.7628 40.7668C54.5423 40.8091 54.3489 40.871 54.1828 40.9526C54.0167 41.0311 53.8853 41.1323 53.7886 41.2561C53.6919 41.377 53.6436 41.5235 53.6436 41.6957ZM64.2463 38.5239V43.1184H63.3899V39.2262H60.3088V41.1972C60.3088 41.5446 60.2801 41.8346 60.2227 42.0672C60.1653 42.2998 60.0898 42.4886 59.9962 42.6336C59.9025 42.7756 59.7968 42.8813 59.679 42.9508C59.5642 43.0202 59.4479 43.0686 59.3301 43.0958C59.2153 43.1199 59.105 43.1305 58.9993 43.1275C58.8936 43.1244 58.806 43.1214 58.7365 43.1184V42.4161C58.809 42.4221 58.886 42.4161 58.9676 42.398C59.0522 42.3798 59.1307 42.33 59.2032 42.2484C59.2757 42.1669 59.3346 42.0445 59.3799 41.8814C59.4283 41.7153 59.4524 41.4872 59.4524 41.1972V38.5239H64.2463ZM68.2925 38.4333C68.7759 38.4333 69.2018 38.4937 69.5703 38.6145C69.9388 38.7354 70.2469 38.903 70.4946 39.1175C70.7454 39.3289 70.9342 39.5812 71.061 39.8742C71.1879 40.1642 71.2513 40.4798 71.2513 40.8212C71.2513 41.1625 71.1879 41.4797 71.061 41.7727C70.9342 42.0627 70.7454 42.3149 70.4946 42.5294C70.2469 42.7408 69.9388 42.907 69.5703 43.0278C69.2018 43.1486 68.7759 43.209 68.2925 43.209C67.8092 43.209 67.3833 43.1486 67.0148 43.0278C66.6463 42.907 66.3366 42.7408 66.0859 42.5294C65.8382 42.3149 65.6509 42.0627 65.5241 41.7727C65.3972 41.4797 65.3338 41.1625 65.3338 40.8212C65.3338 40.4798 65.3972 40.1642 65.5241 39.8742C65.6509 39.5812 65.8382 39.3289 66.0859 39.1175C66.3366 38.903 66.6463 38.7354 67.0148 38.6145C67.3833 38.4937 67.8092 38.4333 68.2925 38.4333ZM68.2925 39.1356C67.9119 39.1356 67.5902 39.1824 67.3274 39.2761C67.0646 39.3697 66.8502 39.4951 66.684 39.6521C66.5209 39.8062 66.4016 39.9859 66.3261 40.1913C66.2536 40.3937 66.2173 40.6037 66.2173 40.8212C66.2173 41.0417 66.2536 41.2546 66.3261 41.46C66.4016 41.6624 66.5209 41.8422 66.684 41.9992C66.8502 42.1533 67.0646 42.2771 67.3274 42.3708C67.5902 42.4614 67.9119 42.5067 68.2925 42.5067C68.6731 42.5067 68.9949 42.4614 69.2577 42.3708C69.5205 42.2771 69.7334 42.1533 69.8965 41.9992C70.0627 41.8422 70.182 41.6624 70.2545 41.46C70.33 41.2546 70.3678 41.0417 70.3678 40.8212C70.3678 40.6037 70.33 40.3937 70.2545 40.1913C70.182 39.9859 70.0627 39.8062 69.8965 39.6521C69.7334 39.4951 69.5205 39.3697 69.2577 39.2761C68.9949 39.1824 68.6731 39.1356 68.2925 39.1356ZM76.9378 38.5239V39.2262H73.1952V43.1184H72.3388V38.5239H76.9378Z" fill="#202020"/>
</g>
<defs>
<clipPath id="clip0">
<rect width="89" height="78.8768" fill="white"/>
</clipPath>
</defs>
</svg>
